<?xml version="1.0" standalone="no"?>
<!DOCTYPE svg PUBLIC "-//W3C//DTD SVG 20010904//EN"
 "http://www.w3.org/TR/2001/REC-SVG-20010904/DTD/svg10.dtd">
<svg version="1.0" xmlns="http://www.w3.org/2000/svg"
 width="777.000000pt" height="779.000000pt" viewBox="0 0 777.000000 779.000000"
 preserveAspectRatio="xMidYMid meet">

<g transform="translate(0.000000,779.000000) scale(0.100000,-0.100000)"
fill="#000000" stroke="none">
<path d="M3555 7781 c-17 -7 -24 -28 -39 -102 -32 -167 -84 -443 -91 -486 l-7
-43 61 0 c69 0 81 11 81 79 0 47 5 51 74 58 l53 6 15 -59 14 -59 66 0 c37 0
69 3 72 6 3 3 -33 129 -80 280 -48 151 -90 285 -93 299 -6 22 -13 25 -57 27
-27 1 -58 -2 -69 -6z m85 -282 c11 -50 19 -93 16 -96 -2 -3 -20 -6 -38 -6 -31
-2 -33 0 -32 28 3 72 16 165 24 165 5 0 18 -41 30 -91z"/>
<path d="M4197 7768 c-17 -74 -79 -590 -71 -598 11 -11 302 -45 311 -36 7 7
24 108 19 113 -2 2 -40 8 -85 13 -45 5 -86 12 -92 15 -11 7 -9 26 27 287 13
97 24 184 24 192 0 16 -14 22 -81 31 -43 6 -47 5 -52 -17z"/>
<path d="M3166 7735 c-53 -19 -112 -79 -131 -133 -22 -65 -20 -195 5 -273 51
-167 158 -249 277 -214 72 21 79 33 63 100 -7 30 -16 55 -19 55 -3 0 -15 -7
-25 -15 -11 -8 -34 -15 -51 -15 -116 0 -182 274 -89 367 21 21 32 25 65 20 44
-6 45 -2 29 67 -13 59 -45 69 -124 41z"/>
<path d="M4617 7723 c-3 -5 -17 -53 -32 -108 -14 -55 -40 -148 -56 -207 -35
-124 -40 -215 -16 -252 36 -54 117 -96 186 -96 81 1 145 52 177 142 19 56 115
440 110 445 -11 11 -117 26 -125 18 -4 -6 -32 -100 -60 -210 -29 -110 -58
-214 -66 -232 -16 -36 -45 -49 -75 -33 -32 17 -26 80 30 294 28 106 50 199 50
208 0 22 -111 50 -123 31z"/>
<path d="M2778 7634 c-27 -8 -48 -17 -48 -20 0 -20 139 -514 161 -571 8 -22 9
-22 61 -7 29 9 56 19 61 23 7 7 -103 425 -141 536 -9 27 -24 51 -32 52 -8 1
-36 -5 -62 -13z"/>
<path d="M5090 7518 c-48 -124 -177 -470 -184 -494 -6 -19 1 -23 56 -42 58
-19 64 -19 69 -4 131 340 209 555 209 573 0 6 -101 49 -114 49 -3 0 -19 -37
-36 -82z"/>
<path d="M2523 7550 c-24 -11 -43 -24 -43 -31 0 -6 25 -74 56 -151 30 -76 54
-144 52 -150 -2 -6 -35 27 -73 73 -89 109 -156 179 -171 179 -30 0 -104 -40
-104 -56 0 -15 206 -542 216 -553 6 -7 77 17 98 32 19 14 17 20 -38 156 -32
78 -56 146 -54 153 2 6 55 -48 117 -121 96 -112 116 -131 135 -125 21 7 106
45 106 48 0 0 -51 127 -114 281 -67 167 -119 281 -127 282 -8 1 -33 -7 -56
-17z"/>
<path d="M5393 7450 c-75 -24 -133 -118 -119 -195 4 -18 27 -63 51 -101 49
-75 56 -113 25 -144 -46 -46 -113 -29 -152 40 -13 22 -27 40 -31 40 -10 0 -57
-99 -57 -121 0 -21 72 -87 116 -105 72 -30 160 -11 222 49 86 82 88 166 10
274 -47 63 -54 88 -34 118 26 39 70 34 118 -15 22 -22 42 -40 45 -40 2 0 16
25 29 55 24 52 25 57 10 80 -35 54 -158 88 -233 65z"/>
<path d="M2035 7335 c-69 -35 -115 -116 -115 -203 0 -134 115 -320 228 -368
52 -22 162 -15 198 12 54 40 57 54 24 111 l-30 52 -29 -30 c-42 -41 -97 -41
-146 2 -51 45 -107 164 -108 230 -1 45 3 55 27 75 15 13 38 24 52 24 22 0 24
3 19 23 -24 78 -62 101 -120 72z"/>
<path d="M5973 7133 c-11 -27 -71 -160 -133 -298 l-112 -249 34 -28 c18 -15
43 -32 55 -39 25 -13 -2 -33 318 230 110 90 202 166 204 168 7 5 -46 57 -78
76 l-30 18 -123 -116 c-68 -64 -135 -126 -151 -137 l-27 -19 10 26 c6 15 46
93 90 174 44 81 80 150 80 154 0 8 -99 87 -109 87 -4 0 -16 -21 -28 -47z"/>
<path d="M1601 7045 c-62 -46 -118 -88 -124 -94 -12 -12 5 -40 131 -211 48
-65 115 -157 150 -204 34 -48 67 -86 73 -84 15 5 258 182 258 189 1 11 -44 72
-61 82 -13 9 -29 0 -80 -41 -34 -29 -71 -52 -80 -52 -20 0 -81 84 -76 105 2 8
27 31 57 52 76 53 81 64 47 107 -15 20 -31 36 -36 36 -6 0 -37 -20 -71 -45
-34 -25 -67 -45 -75 -45 -14 0 -64 67 -64 86 0 6 32 35 70 63 39 28 70 56 70
62 0 18 -49 79 -63 79 -7 0 -63 -38 -126 -85z"/>
<path d="M3595 6880 c-49 -5 -110 -13 -135 -18 l-45 -7 -6 -115 c-4 -63 -7
-196 -8 -296 0 -99 -4 -256 -8 -347 -5 -150 -8 -167 -24 -167 -36 0 -298 -93
-396 -141 -57 -27 -106 -49 -111 -49 -4 0 -87 93 -183 207 -200 239 -398 467
-409 471 -10 4 -212 -140 -310 -221 -47 -38 -131 -117 -187 -174 l-103 -104
124 -147 c67 -81 194 -230 281 -332 86 -102 162 -195 167 -207 9 -18 5 -27
-22 -55 -38 -39 -130 -177 -156 -233 -11 -22 -21 -42 -25 -45 -7 -6 -39 -76
-39 -85 0 -3 -14 -26 -30 -50 -28 -41 -32 -43 -68 -38 -20 3 -212 34 -426 69
-214 35 -399 64 -411 64 -12 0 -22 -6 -22 -12 0 -7 -14 -59 -31 -116 -55 -180
-112 -501 -112 -624 0 -36 -2 -35 433 -108 193 -32 375 -64 403 -70 l51 -11 7
-102 c8 -123 39 -318 72 -446 19 -74 21 -97 11 -103 -12 -8 -117 -67 -507
-286 -113 -63 -222 -126 -242 -138 l-37 -24 50 -112 c73 -163 150 -307 235
-433 109 -164 93 -151 156 -119 29 15 207 114 394 220 188 107 347 194 354
194 7 0 57 -44 110 -98 99 -100 258 -227 369 -294 35 -21 61 -44 61 -54 0 -9
-41 -136 -91 -283 -106 -308 -200 -594 -196 -597 30 -26 307 -138 437 -178
141 -42 302 -78 311 -69 11 11 65 163 164 458 46 138 98 290 115 338 l32 88
132 -7 c117 -6 393 8 452 22 20 5 31 -18 143 -303 149 -379 231 -573 241 -573
19 0 223 63 323 100 135 50 376 165 383 184 3 7 -72 204 -166 437 -93 233
-170 428 -170 434 0 5 41 39 89 73 110 79 172 132 279 239 46 46 90 83 97 83
8 0 40 -15 72 -34 59 -34 361 -193 622 -327 l143 -74 24 30 c58 71 170 250
228 365 63 122 140 299 134 305 -6 4 -381 201 -588 308 -113 58 -213 112 -223
119 -16 12 -16 16 3 83 36 125 92 469 82 507 -2 9 -4 8 433 83 209 35 407 70
441 76 l60 10 -3 62 c-13 222 -51 453 -105 639 -28 98 -32 107 -52 103 -11 -3
-91 -16 -176 -30 -85 -14 -283 -47 -439 -74 l-285 -48 -75 151 c-63 124 -159
281 -246 402 -14 19 -10 27 74 132 49 61 158 193 243 294 182 217 248 300 248
315 0 17 -213 217 -315 296 -49 39 -137 101 -195 139 -101 66 -105 68 -120 49
-61 -76 -560 -669 -573 -679 -13 -11 -25 -8 -74 16 -105 53 -276 112 -472 162
l-44 12 7 453 7 453 -38 6 c-68 11 -506 15 -598 6z m391 -929 l81 -146 129
-27 c526 -111 916 -370 1206 -801 128 -191 235 -454 280 -693 18 -100 22 -154
22 -339 1 -232 -8 -308 -50 -478 -20 -81 -64 -210 -98 -287 -4 -9 32 -84 94
-195 l100 -180 -38 -7 c-20 -4 -113 -4 -207 -1 l-170 6 -68 -81 c-248 -295
-595 -516 -952 -606 -276 -69 -576 -80 -822 -31 -84 17 -412 127 -503 168
-181 81 -459 309 -616 504 -73 91 -74 92 -127 98 -29 4 -75 6 -103 4 -27 -2
-93 -2 -146 -1 l-98 2 10 25 c5 14 51 94 101 177 63 105 89 157 86 172 -3 12
-21 66 -41 122 -66 189 -81 297 -81 569 0 211 3 254 23 353 58 288 195 585
377 817 293 374 697 612 1180 695 l100 17 48 79 c26 43 73 121 104 172 l58 93
20 -27 c11 -15 56 -93 101 -173z"/>
<path d="M3842 6013 c-10 -16 -95 -154 -187 -308 -92 -154 -176 -293 -186
-310 -11 -16 -22 -37 -25 -45 -4 -8 -13 -22 -19 -30 -7 -8 -25 -37 -40 -65
-15 -27 -53 -93 -84 -145 -39 -63 -54 -97 -47 -102 6 -4 30 -8 53 -8 l42 0 78
128 c44 70 157 256 252 414 95 158 176 290 180 292 4 3 65 -97 136 -222 71
-125 157 -276 192 -337 35 -60 63 -115 63 -121 0 -7 -15 -25 -32 -40 -18 -15
-32 -31 -30 -36 1 -5 -2 -7 -7 -4 -12 8 -63 -19 -54 -28 4 -4 -1 -4 -11 0 -13
5 -17 4 -13 -3 5 -7 -1 -9 -15 -6 -19 4 -20 3 -8 -6 11 -8 7 -10 -20 -5 -20 3
-30 2 -23 -3 6 -4 -35 -6 -90 -5 -130 5 -154 22 -31 22 104 1 146 14 205 63
40 32 89 97 74 97 -3 0 -23 -9 -45 -20 -22 -11 -50 -20 -62 -21 -22 0 -22 -1
-3 -9 13 -6 -9 -8 -65 -8 -47 0 -74 3 -60 5 47 9 -157 54 -257 57 -79 3 -97 0
-130 -19 -21 -12 -37 -27 -35 -34 1 -7 -2 -10 -6 -7 -28 17 -70 -106 -57 -166
11 -51 30 -82 92 -148 l56 -61 -17 -36 c-12 -25 -14 -39 -7 -46 6 -6 11 -29
11 -52 0 -48 6 -57 46 -78 27 -14 32 -23 37 -68 4 -28 9 -54 12 -57 3 -3 29 0
58 7 88 21 89 22 79 34 -5 7 -12 28 -16 48 -5 28 -2 42 14 62 22 28 25 52 10
106 -5 20 -12 49 -15 64 -4 20 -15 31 -35 39 -29 10 -29 10 -15 39 20 38 68
60 199 93 59 15 125 35 146 46 38 20 106 85 125 121 11 19 12 19 27 2 9 -10
25 -37 37 -60 21 -43 22 -43 77 -43 l56 0 -57 108 c-32 59 -150 271 -262 472
-274 487 -264 470 -268 470 -2 0 -12 -12 -23 -27z m25 -1009 c-3 -3 -12 -4
-19 -1 -8 3 -5 6 6 6 11 1 17 -2 13 -5z m131 -1 c-10 -2 -26 -2 -35 0 -10 3
-2 5 17 5 19 0 27 -2 18 -5z m-225 -270 c-13 -2 -35 -2 -50 0 -16 2 -5 4 22 4
28 0 40 -2 28 -4z m52 -11 c-3 -3 -11 0 -18 7 -9 10 -8 11 6 5 10 -3 15 -9 12
-12z m-58 -88 c-3 -3 -12 -4 -19 -1 -8 3 -5 6 6 6 11 1 17 -2 13 -5z m44 -21
c13 -17 13 -17 -6 -3 -11 8 -22 16 -24 17 -2 2 0 3 6 3 6 0 17 -8 24 -17z"/>
<path d="M3474 5710 c-341 -68 -710 -275 -945 -528 -388 -420 -559 -933 -494
-1487 22 -185 79 -405 105 -405 8 0 382 616 395 650 4 11 -6 21 -35 34 -49 21
-84 66 -100 126 -12 45 -10 244 6 723 l7 177 121 0 c66 0 127 -4 135 -9 11 -7
13 -48 7 -237 -13 -502 -13 -539 8 -539 22 0 178 256 814 1328 126 212 128
198 -24 167z"/>
<path d="M4110 5722 c0 -9 347 -634 388 -699 l27 -43 265 -1 c146 -1 319 -4
385 -8 l120 -6 3 -70 c2 -38 0 -98 -3 -132 l-7 -63 -209 0 -209 0 0 -171 0
-172 271 -486 c149 -267 294 -524 322 -570 l51 -85 23 64 c141 375 155 790 42
1171 -60 203 -161 404 -289 579 -82 112 -283 309 -393 387 -105 74 -285 167
-417 216 -128 47 -370 105 -370 89z"/>
<path d="M3683 5213 c9 -2 23 -2 30 0 6 3 -1 5 -18 5 -16 0 -22 -2 -12 -5z"/>
<path d="M2460 4970 c-16 -10 -19 -73 -22 -487 -3 -382 -3 -392 18 -420 43
-60 53 -61 464 -65 362 -3 376 -2 410 17 62 36 72 72 81 294 4 108 8 298 8
424 l1 227 -94 0 -93 0 -7 -332 c-3 -183 -9 -362 -13 -397 l-6 -63 -283 3
c-155 3 -285 7 -289 11 -4 3 -2 179 3 390 5 210 6 386 3 389 -8 9 -168 17
-181 9z"/>
<path d="M4251 4856 c-2 -90 -1 -94 21 -100 13 -3 103 -6 200 -6 129 0 179 -3
184 -12 5 -7 8 -181 8 -388 l1 -375 81 -3 81 -3 8 383 c4 211 11 385 15 388 5
3 98 5 208 4 l200 -1 7 82 c4 45 5 90 3 101 -3 18 -20 19 -509 22 l-505 2 -3
-94z"/>
<path d="M3170 4900 c0 -7 -67 -123 -149 -258 -145 -243 -241 -407 -241 -416
0 -2 23 -6 51 -8 l50 -3 121 200 c67 110 136 224 155 254 31 51 33 61 33 142
0 48 -4 91 -10 94 -5 3 -10 1 -10 -5z"/>
<path d="M4524 4668 c13 -24 40 -71 59 -106 l35 -63 7 66 c3 36 4 83 0 105
l-7 40 -59 0 -60 0 25 -42z"/>
<path d="M3600 4289 c7 -11 14 -18 17 -15 8 8 -5 36 -17 36 -7 0 -7 -6 0 -21z"/>
<path d="M4870 4140 l0 -90 277 -493 c316 -562 313 -556 313 -575 0 -12 -90
-13 -630 -7 l-630 7 0 -51 0 -51 118 0 c64 0 388 -5 720 -11 332 -6 605 -9
607 -7 4 4 -32 71 -318 578 -391 696 -439 780 -448 786 -5 3 -9 -35 -9 -86z"/>
<path d="M4090 4096 c0 -8 5 -18 10 -21 6 -3 10 3 10 14 0 12 -4 21 -10 21 -5
0 -10 -6 -10 -14z"/>
<path d="M3725 3989 c-4 -5 0 -18 8 -27 7 -9 18 -26 22 -37 7 -17 9 -18 12 -3
4 15 -22 78 -32 78 -2 0 -7 -5 -10 -11z"/>
<path d="M4087 3915 c-4 -44 -10 -91 -13 -105 -5 -24 -5 -24 10 -6 16 19 16
19 16 -1 0 -12 5 -25 12 -29 8 -5 9 -2 3 12 -5 10 -11 62 -14 114 l-6 95 -8
-80z"/>
<path d="M3898 3953 c-21 -8 -38 -19 -38 -24 0 -4 -16 -11 -37 -15 -31 -6 -34
-9 -20 -19 12 -8 13 -15 5 -23 -8 -8 -4 -47 12 -142 12 -72 20 -153 18 -180
-1 -26 0 -46 4 -44 4 2 9 0 13 -6 9 -15 98 -12 119 3 16 12 17 19 7 68 -6 30
-13 83 -17 118 -7 61 -6 63 15 56 27 -8 27 -5 -9 40 -18 23 -30 49 -30 68 0
17 -8 39 -17 51 -18 19 -18 19 6 3 23 -15 25 -15 36 0 10 13 10 20 -1 31 -8 7
-12 18 -9 23 9 13 -15 10 -57 -8z m-1 -29 c-3 -3 -12 -4 -19 -1 -8 3 -5 6 6 6
11 1 17 -2 13 -5z"/>
<path d="M2520 3803 c-416 -686 -525 -871 -518 -878 3 -4 1098 -25 1264 -25
l94 0 0 44 c0 25 -4 47 -8 50 -5 3 -263 10 -574 15 -312 6 -574 14 -582 17
-21 8 -16 15 286 523 126 210 232 389 235 397 4 11 -7 14 -48 14 l-54 0 -95
-157z"/>
<path d="M3406 3323 c-3 -76 -9 -289 -12 -474 l-6 -337 28 -5 c16 -3 241 -9
499 -13 l471 -6 2 86 1 86 -152 0 c-214 1 -630 10 -644 15 -8 3 -11 36 -10
112 l2 108 288 0 287 -1 0 82 0 81 -127 6 c-71 4 -199 7 -285 7 l-158 0 0 116
0 115 385 -7 385 -7 0 80 0 80 -217 6 c-120 4 -333 7 -474 7 l-257 0 -6 -137z"/>
<path d="M2385 2829 c61 -104 288 -323 438 -423 396 -264 912 -365 1377 -270
219 45 504 170 690 302 90 63 360 319 360 340 0 6 -59 12 -142 16 -119 5
-1286 26 -1440 26 l-48 0 0 -58 0 -59 113 -6 c61 -4 193 -7 293 -7 99 0 229
-3 288 -7 l107 -6 -3 -111 -3 -111 -440 2 c-242 1 -482 5 -533 8 l-93 7 3 173
c2 95 1 175 -2 178 -3 3 -223 8 -489 12 -410 6 -483 5 -476 -6z"/>
<path d="M1226 6729 c-69 -67 -126 -126 -126 -133 0 -7 16 -27 35 -46 l35 -34
38 37 c23 23 44 35 53 32 9 -3 63 -58 121 -123 59 -64 132 -142 163 -172 l56
-55 45 48 45 47 -139 148 c-77 81 -152 162 -168 180 l-27 33 37 38 c20 20 36
41 36 47 0 11 -62 74 -72 74 -3 0 -63 -54 -132 -121z"/>
<path d="M6340 6694 c-134 -82 -386 -241 -399 -251 -9 -7 83 -93 99 -93 9 0
29 14 45 30 38 40 69 36 108 -12 l30 -37 -33 -51 -33 -52 51 -51 c28 -28 53
-49 55 -47 7 8 191 320 262 444 75 131 75 128 9 182 l-39 33 -155 -95z m15
-175 c-27 -39 -55 -74 -63 -77 -9 -3 -23 4 -34 18 -18 22 -18 24 -1 42 22 25
136 99 142 93 2 -3 -17 -37 -44 -76z"/>
<path d="M6535 6304 c-137 -107 -250 -199 -250 -204 0 -12 74 -100 83 -100 4
0 41 27 82 61 41 33 87 67 102 75 25 13 28 13 38 -6 18 -33 3 -58 -82 -141
l-80 -78 43 -55 c24 -31 47 -56 50 -56 13 0 136 144 154 179 9 19 18 52 19 73
1 30 4 37 16 31 8 -4 40 -9 71 -11 124 -8 214 88 179 193 -9 27 -163 236 -173
235 -1 -1 -114 -89 -252 -196z m265 -14 c26 -26 25 -62 -2 -88 -37 -33 -71
-37 -102 -10 -34 29 -28 48 28 88 49 35 51 35 76 10z"/>
<path d="M792 6209 c-41 -20 -90 -80 -151 -181 l-21 -36 202 -145 c112 -79
223 -158 248 -174 l44 -30 28 36 c85 110 102 142 106 200 6 81 -23 143 -102
219 -119 115 -260 159 -354 111z m178 -147 c64 -37 137 -108 150 -146 12 -38
-1 -86 -23 -86 -7 0 -51 26 -98 58 -46 32 -112 77 -146 101 -35 23 -63 48 -63
54 0 22 16 38 46 47 39 12 80 3 134 -28z"/>
<path d="M6960 6009 c-117 -23 -300 -153 -341 -244 -29 -63 -25 -118 12 -160
17 -19 42 -38 56 -41 21 -6 23 -11 18 -36 -5 -19 -1 -37 9 -53 l16 -24 87 50
c49 28 116 68 149 90 l62 40 -42 69 c-22 38 -48 69 -56 70 -9 0 -32 -11 -53
-25 -32 -22 -36 -29 -27 -45 9 -17 6 -23 -22 -40 -18 -11 -44 -19 -58 -18 -20
2 -26 9 -28 35 -4 45 52 104 142 148 124 61 214 57 242 -11 8 -19 14 -45 14
-59 0 -32 10 -31 66 1 50 30 55 49 28 127 -21 63 -77 112 -143 126 -58 12 -68
12 -131 0z"/>
<path d="M446 5696 c-15 -30 -25 -60 -21 -65 20 -33 462 -418 469 -410 2 2 15
28 30 56 l26 53 -22 19 c-13 11 -34 28 -47 38 -22 18 -23 22 -12 54 6 19 18
43 27 54 14 19 17 19 74 4 l59 -15 32 58 c17 33 28 62 25 65 -6 6 -581 142
-602 143 -6 0 -23 -25 -38 -54z m298 -127 c59 -22 65 -31 41 -66 l-15 -22 -36
21 c-19 11 -56 40 -82 63 l-47 44 42 -10 c23 -5 67 -18 97 -30z"/>
<path d="M7120 5494 c-151 -25 -298 -49 -327 -55 l-52 -10 26 -62 c15 -34 27
-63 28 -65 1 -1 30 4 63 12 68 16 69 15 100 -57 18 -41 17 -42 -38 -76 -59
-36 -62 -51 -22 -121 l28 -49 140 102 c77 56 197 146 267 200 117 91 125 100
117 122 -11 30 -50 105 -53 104 -1 0 -126 -21 -277 -45z m92 -123 c-18 -16
-56 -41 -84 -56 -49 -27 -52 -27 -65 -10 -29 40 -18 53 65 70 42 9 82 18 87
20 28 9 27 1 -3 -24z"/>
<path d="M405 5365 c-5 -2 -22 -6 -37 -9 -35 -8 -94 -59 -115 -100 -9 -16 -28
-67 -43 -112 l-28 -83 201 -74 c312 -115 368 -132 378 -116 27 42 69 174 69
216 0 92 -59 168 -179 228 -74 37 -205 64 -246 50z m180 -174 c76 -37 125 -89
125 -131 0 -24 -4 -30 -21 -30 -26 0 -175 49 -275 91 -83 35 -92 53 -46 89 39
32 130 23 217 -19z"/>
<path d="M7355 5106 c-47 -21 -71 -55 -100 -141 -27 -80 -53 -120 -85 -130
-26 -8 -67 11 -81 37 -14 27 -15 102 0 140 l10 26 -57 -15 c-92 -24 -92 -24
-92 -102 0 -100 35 -166 109 -203 69 -35 128 -36 196 -4 62 28 79 52 105 153
24 89 41 113 81 113 44 0 63 -37 56 -111 -4 -48 -3 -59 8 -55 8 3 33 10 57 16
24 6 49 19 56 28 28 36 1 160 -45 204 -56 54 -152 73 -218 44z"/>
<path d="M124 4854 c-9 -31 -12 -60 -8 -64 8 -7 338 -90 531 -133 l61 -14 17
65 c9 35 15 65 13 66 -7 5 -574 137 -585 136 -7 0 -20 -25 -29 -56z"/>
<path d="M66 4579 c-67 -136 8 -279 148 -279 64 0 97 19 150 88 69 90 138 106
171 41 19 -36 8 -82 -32 -130 -14 -16 -24 -32 -21 -34 2 -2 30 -8 61 -13 56
-9 58 -8 82 20 107 127 13 338 -152 338 -64 0 -99 -21 -165 -100 -59 -71 -94
-86 -129 -54 -26 24 -24 64 7 109 26 39 22 54 -17 55 -9 0 -30 3 -46 6 -28 6
-32 3 -57 -47z"/>
<path d="M7638 4438 l-38 -10 0 -59 c0 -58 -1 -59 -27 -59 -46 0 -426 -29
-460 -35 -31 -5 -33 -9 -33 -44 0 -21 3 -51 6 -67 6 -34 -19 -33 313 -8 112 8
206 12 209 9 4 -3 9 -30 12 -58 l5 -52 63 -3 62 -3 -1 43 c-1 81 -25 333 -32
346 -9 14 -27 14 -79 0z"/>
<path d="M95 4196 c-16 -7 -38 -22 -47 -32 -28 -32 -48 -130 -48 -235 l0 -96
306 -7 c168 -4 308 -6 310 -3 2 2 5 33 6 68 l3 64 -122 5 c-67 3 -124 8 -128
12 -11 11 3 42 26 57 12 7 64 17 115 21 51 4 98 11 103 15 6 3 11 38 11 77 l0
70 -37 -6 c-166 -29 -198 -39 -234 -77 l-36 -37 -38 45 c-57 68 -123 89 -190
59z m148 -154 c12 -10 17 -27 15 -46 -3 -31 -4 -31 -65 -34 -58 -3 -64 -1 -74
21 -30 66 66 111 124 59z"/>
<path d="M7275 3976 c-59 -15 -123 -46 -147 -73 -27 -30 -48 -89 -48 -136 0
-93 78 -177 199 -215 79 -24 247 -23 320 2 190 66 216 282 45 378 -94 52 -257
72 -369 44z m251 -145 c66 -15 96 -43 92 -83 -5 -49 -43 -70 -135 -76 -144 -8
-255 32 -261 94 -4 37 19 60 74 73 46 12 159 8 230 -8z"/>
<path d="M562 3759 c-29 -4 -55 -9 -56 -10 -2 -2 1 -46 7 -97 5 -51 7 -95 5
-98 -3 -2 -34 -7 -70 -11 -62 -5 -65 -5 -71 18 -4 13 -7 40 -7 60 0 20 -3 51
-6 68 -7 33 -20 37 -84 25 l-32 -7 7 -92 7 -92 -39 -6 c-21 -4 -48 -7 -60 -7
-23 0 -23 0 -38 143 l-7 58 -36 -6 c-86 -14 -79 -2 -70 -117 5 -57 12 -130 16
-163 l7 -60 55 3 c63 4 479 50 528 58 30 6 32 9 32 47 0 59 -22 270 -29 282
-4 7 -26 8 -59 4z"/>
<path d="M7066 3484 c-3 -9 -9 -39 -12 -68 l-6 -52 93 -17 c173 -31 200 -46
144 -83 -19 -13 -46 -15 -142 -12 l-118 3 -11 -50 c-24 -101 -30 -95 105 -95
126 0 175 11 192 41 14 27 36 24 43 -6 10 -38 72 -102 113 -116 50 -16 119 -6
150 22 14 13 34 43 44 66 20 44 56 249 46 260 -8 7 -582 123 -613 123 -12 0
-25 -7 -28 -16z m467 -215 c42 -11 48 -33 19 -70 -39 -48 -132 -17 -132 45 0
18 3 35 6 39 7 6 43 1 107 -14z"/>
<path d="M59 3233 c-3 -17 3 -60 12 -97 l11 -39 96 7 c259 18 297 19 287 7 -6
-6 -85 -43 -175 -81 -91 -39 -168 -74 -171 -78 -3 -4 1 -35 8 -69 l14 -61 32
10 c35 12 397 195 490 248 l58 33 -7 41 c-3 22 -10 51 -15 64 l-9 22 -315 0
c-173 0 -315 -3 -316 -7z"/>
<path d="M6965 3018 c-9 -29 -18 -58 -20 -64 -2 -7 44 -27 111 -49 62 -21 121
-43 130 -50 16 -11 15 -14 -4 -33 -28 -28 -60 -28 -167 -1 -47 12 -91 19 -99
16 -13 -5 -59 -127 -51 -136 8 -8 156 -32 212 -34 50 -1 67 2 92 21 17 12 32
22 35 22 2 0 12 -22 20 -48 46 -138 217 -176 290 -65 20 31 53 126 87 252 3 9
-17 22 -56 38 -87 35 -532 183 -549 183 -9 0 -21 -21 -31 -52z m443 -235 c36
-13 41 -19 36 -37 -19 -62 -77 -74 -125 -27 -29 30 -34 46 -23 76 8 19 39 16
112 -12z"/>
<path d="M590 2859 c-91 -32 -220 -79 -287 -105 l-121 -46 20 -59 c11 -32 24
-59 28 -59 12 0 359 122 485 171 l104 40 -11 32 c-21 66 -31 87 -42 86 -6 0
-85 -27 -176 -60z"/>
<path d="M553 2583 c-190 -95 -273 -141 -273 -152 1 -9 11 -35 23 -59 l23 -42
147 71 c81 40 150 69 154 65 4 -3 -50 -62 -120 -130 -120 -117 -127 -126 -117
-150 9 -25 39 -88 46 -94 3 -5 546 256 558 268 10 9 -6 61 -29 97 l-15 23
-132 -66 c-143 -72 -178 -87 -178 -77 0 4 58 64 130 134 l130 128 -21 47 c-21
50 -37 75 -48 73 -3 0 -129 -62 -278 -136z"/>
<path d="M6764 2505 c-41 -85 -74 -157 -74 -160 0 -6 67 -40 96 -49 18 -6 25
2 49 56 15 35 36 75 47 90 l19 28 60 -30 c32 -17 59 -35 59 -40 0 -6 -16 -42
-35 -80 -19 -38 -35 -74 -35 -80 0 -8 89 -60 103 -60 2 0 21 36 41 80 21 44
42 83 47 86 10 6 109 -47 109 -59 0 -4 -15 -38 -34 -75 -53 -106 -53 -105 -1
-130 25 -12 51 -22 59 -22 10 0 156 285 156 305 0 6 -181 97 -418 211 l-174
83 -74 -154z"/>
<path d="M6670 2272 c-45 -28 -102 -87 -116 -119 -19 -45 -17 -120 5 -168 22
-50 86 -109 135 -125 49 -16 89 -7 169 35 90 48 137 45 151 -9 9 -38 -12 -72
-60 -98 -24 -13 -44 -25 -44 -28 1 -9 100 -70 115 -70 20 0 92 66 110 100 36
71 26 155 -27 216 -67 76 -137 86 -244 34 -82 -41 -124 -43 -159 -10 -53 50
-25 114 68 154 l50 22 -34 21 c-19 12 -48 30 -64 41 -28 17 -33 18 -55 4z"/>
<path d="M894 2207 c-68 -37 -343 -227 -363 -251 -11 -13 -9 -23 13 -60 14
-25 30 -47 35 -50 5 -3 87 47 182 111 202 135 249 159 279 143 26 -14 27 -63
1 -89 -11 -11 -61 -47 -113 -82 -51 -34 -134 -91 -185 -127 l-92 -65 18 -36
c11 -20 28 -44 38 -54 19 -17 26 -13 218 115 112 75 212 149 228 170 38 47 46
111 22 174 -50 131 -154 169 -281 101z"/>
<path d="M5695 1454 c-44 -22 -95 -74 -111 -111 -35 -82 -2 -185 75 -235 44
-28 50 -29 121 -24 41 4 94 9 118 12 36 5 47 3 68 -17 26 -24 32 -66 14 -100
-13 -24 -81 -59 -115 -59 -14 0 -25 -3 -25 -6 0 -17 84 -104 101 -104 34 0
117 48 142 82 41 55 50 81 50 138 0 97 -66 186 -155 211 -37 10 -55 9 -125
-10 -109 -28 -143 -16 -143 54 0 31 42 64 92 71 21 4 38 9 38 11 0 13 -87 103
-100 103 -8 0 -28 -7 -45 -16z"/>
<path d="M1980 1358 c-19 -22 -110 -131 -202 -242 l-167 -201 22 -23 c20 -22
176 -158 219 -190 14 -11 21 -6 54 34 l39 47 -74 67 -75 68 35 48 c20 27 43
50 53 52 10 2 37 -15 65 -41 76 -71 80 -72 123 -22 l38 43 -70 62 c-39 34 -70
65 -70 69 0 3 17 25 38 49 l37 43 73 -61 c41 -33 77 -60 82 -60 4 0 25 19 46
42 l37 42 -44 39 c-119 104 -207 177 -215 176 -5 0 -25 -19 -44 -41z"/>
<path d="M5302 1125 c-28 -20 -52 -42 -52 -49 0 -13 226 -615 234 -623 6 -6
56 21 89 49 l28 23 -27 59 -27 59 28 23 c66 52 71 52 123 1 l48 -47 54 37 c29
21 55 43 57 49 3 9 -76 82 -408 377 -48 42 -89 77 -91 77 -2 0 -27 -16 -56
-35z m202 -257 c31 -34 56 -65 56 -69 0 -3 -12 -15 -27 -24 -25 -17 -27 -17
-41 1 -13 18 -53 100 -73 152 -8 20 -7 21 10 12 10 -5 44 -37 75 -72z"/>
<path d="M2305 1082 c-75 -35 -124 -118 -110 -188 3 -19 22 -67 40 -106 39
-81 42 -103 19 -136 -12 -17 -25 -22 -58 -22 -47 0 -79 26 -110 88 -9 17 -18
32 -21 32 -7 0 -65 -108 -65 -122 0 -19 74 -104 103 -120 75 -40 168 -26 235
36 84 77 92 137 32 258 -51 104 -52 131 -5 156 15 7 29 7 51 -3 32 -13 74 -63
74 -87 0 -15 43 34 66 75 14 26 14 31 -3 59 -49 82 -164 119 -248 80z"/>
<path d="M2635 898 c-34 -84 -203 -523 -209 -545 -6 -19 0 -24 50 -43 46 -17
59 -18 65 -8 14 22 129 316 129 330 1 7 7 24 16 38 13 23 14 14 9 -105 -3 -72
-9 -146 -12 -165 -6 -33 -5 -34 12 -20 15 12 153 180 177 214 4 6 10 7 14 4 3
-4 -10 -44 -29 -90 -45 -104 -107 -274 -107 -293 0 -15 58 -44 93 -48 15 -2
28 21 63 108 81 200 185 478 181 488 -2 8 -111 57 -127 57 -3 0 -39 -40 -78
-90 -40 -49 -79 -90 -87 -90 -12 0 -14 19 -8 124 l6 124 -48 21 c-86 38 -90
38 -110 -11z"/>
<path d="M4868 881 c-51 -27 -94 -53 -95 -58 -4 -11 251 -571 266 -586 11 -11
199 83 228 115 95 102 55 348 -80 495 -52 57 -106 82 -174 83 -43 0 -68 -8
-145 -49z m192 -110 c33 -23 87 -113 105 -175 23 -76 20 -130 -10 -163 -25
-28 -25 -28 -41 -8 -21 26 -164 324 -164 341 0 36 63 39 110 5z"/>
<path d="M4483 749 l-61 -19 18 -63 c10 -34 51 -172 90 -307 39 -135 75 -249
80 -254 9 -9 307 71 316 85 7 11 -25 119 -36 119 -4 0 -37 -9 -72 -20 -114
-36 -109 -39 -152 108 -57 194 -105 346 -113 358 -6 9 -25 7 -70 -7z"/>
<path d="M3166 742 c-7 -11 -60 -272 -90 -442 -15 -80 -28 -155 -31 -167 -4
-19 1 -24 32 -32 32 -8 288 -61 298 -61 4 0 27 122 23 125 -2 2 -42 11 -90 21
-47 9 -91 20 -96 23 -11 7 4 120 17 134 4 4 41 1 82 -8 107 -22 106 -22 114
31 3 26 9 52 11 59 4 8 -16 16 -58 24 -35 7 -77 17 -95 22 -30 9 -31 12 -26
47 3 20 9 47 14 58 8 24 -7 25 180 -10 25 -5 27 -2 38 51 6 31 8 60 4 64 -7 7
-290 69 -313 69 -5 0 -11 -4 -14 -8z"/>
<path d="M4143 687 c-34 -8 -43 -15 -47 -36 -8 -35 -66 -584 -66 -618 0 -26 0
-26 61 -20 35 3 65 11 70 19 5 7 9 37 9 66 0 59 2 61 75 64 l50 3 18 -59 19
-59 69 5 c39 3 72 8 75 10 5 6 -183 504 -221 586 -27 57 -32 59 -112 39z m80
-285 c36 -115 36 -122 -8 -122 l-35 0 0 105 c0 58 3 105 8 105 4 0 19 -40 35
-88z"/>
<path d="M3547 619 c-4 -35 -10 -185 -13 -332 l-7 -268 69 3 69 3 5 127 c3 69
8 129 12 133 9 9 46 -12 57 -33 5 -9 14 -67 21 -128 l12 -112 46 -6 c69 -9
102 -7 102 7 0 36 -31 208 -41 233 -7 16 -25 43 -41 60 l-28 30 43 31 c58 40
81 90 75 161 -4 48 -10 60 -41 88 -46 42 -87 54 -223 61 l-111 6 -6 -64z m215
-86 c23 -20 24 -80 2 -111 -12 -17 -24 -22 -47 -20 -32 3 -32 4 -35 62 -2 32
-1 65 2 72 7 19 56 17 78 -3z"/>
</g>
</svg>
